<svg width="120" height="120" viewBox="0 0 120 120" fill="none" xmlns="http://www.w3.org/2000/svg">
<path d="M120 120H0V0H120V120ZM58.0557 28.7998C45.9599 28.8 36.1686 38.4 35.6885 50.3037H32.8076C32.3275 38.4 22.4401 28.8 10.4404 28.7998V51.2637H32.7119C20.424 51.2637 10.4405 61.2479 10.4404 73.6318V96C22.8242 95.9998 32.8076 86.0157 32.8076 73.6318V52.2236H35.5918V73.6318C35.5918 86.0157 45.6718 95.9998 58.0557 96V73.6318C58.0556 61.2481 48.0722 51.2639 35.6885 51.2637H58.0557V28.7998ZM108.681 28.7998C96.5849 28.8 86.7936 38.4 86.3135 50.3037H83.4326C82.9525 38.4 73.0651 28.8 61.0654 28.7998V51.2637H83.3369C71.049 51.2637 61.0655 61.2479 61.0654 73.6318V96C73.4492 95.9998 83.4326 86.0157 83.4326 73.6318V52.2236H86.2168V73.6318C86.2168 86.0157 96.2968 95.9998 108.681 96V73.6318C108.681 61.2481 98.6972 51.2639 86.3135 51.2637H108.681V28.7998Z" fill="url(#paint0_linear_7_8)"/>
<defs>
<linearGradient id="paint0_linear_7_8" x1="120" y1="0" x2="0" y2="120" gradientUnits="userSpaceOnUse">
<stop stop-color="#4D00FF"/>
<stop offset="1" stop-color="#2E0099"/>
</linearGradient>
</defs>
</svg>
