<svg width="140" height="140" viewBox="0 0 140 140" fill="none" xmlns="http://www.w3.org/2000/svg">
<path d="M70 0C108.66 0 140 31.3401 140 70C140 108.66 108.66 140 70 140C31.3401 140 0 108.66 0 70C0 31.3401 31.3401 0 70 0ZM68.0557 37.7998C55.9599 37.8 46.1686 47.4 45.6885 59.3037H42.8076C42.3275 47.4 32.4401 37.8 20.4404 37.7998V60.2637H42.7119C30.424 60.2637 20.4405 70.2479 20.4404 82.6318V105C32.8242 105 42.8076 95.0157 42.8076 82.6318V61.2236H45.5918V82.6318C45.5918 95.0157 55.6718 105 68.0557 105V82.6318C68.0556 70.2481 58.0722 60.2639 45.6885 60.2637H68.0557V37.7998ZM118.681 37.7998C106.585 37.8 96.7936 47.4 96.3135 59.3037H93.4326C92.9525 47.4 83.0651 37.8 71.0654 37.7998V60.2637H93.3369C81.049 60.2637 71.0655 70.2479 71.0654 82.6318V105C83.4492 105 93.4326 95.0157 93.4326 82.6318V61.2236H96.2168V82.6318C96.2168 95.0157 106.297 105 118.681 105V82.6318C118.681 70.2481 108.697 60.2639 96.3135 60.2637H118.681V37.7998Z" fill="url(#paint0_linear_7_12)"/>
<defs>
<linearGradient id="paint0_linear_7_12" x1="112" y1="17" x2="34.5" y2="129" gradientUnits="userSpaceOnUse">
<stop stop-color="#4D00FF"/>
<stop offset="1" stop-color="#2E0099"/>
</linearGradient>
</defs>
</svg>
