<svg width="300" height="300" viewBox="0 0 300 300" fill="none" xmlns="http://www.w3.org/2000/svg">
<g clip-path="url(#clip0_11_4)">
<path d="M300 300H0V0H300V300ZM149.58 49.3199C146.64 49.32 144.54 51.4201 144.12 53.94C137.4 90.8997 131.94 111.9 118.92 124.5C105.9 137.52 84.9 143.4 47.94 149.7C45.42 150.12 43.7403 152.64 43.7403 155.16C43.7405 158.1 45.4201 160.2 47.94 160.62C84.9 167.34 105.9 172.8 118.92 185.82C131.94 198.84 137.4 219.84 144.12 256.8C144.54 259.32 146.64 261 149.58 261C152.1 261 154.62 259.32 155.04 256.8C161.34 219.84 167.22 198.84 180.24 185.82C193.26 172.8 213.84 167.34 250.8 160.62C253.32 160.2 255.42 158.1 255.42 155.16C255.42 152.64 253.32 150.12 250.8 149.7C213.84 143.4 192.84 137.52 180.24 124.5C167.22 111.48 161.34 90.8998 155.04 53.94C154.62 51.42 152.1 49.3199 149.58 49.3199ZM227.28 34.1997C226.02 34.2 225.18 35.04 224.76 35.8799C222.24 50.9999 220.14 59.4003 214.68 64.8603C209.22 70.3203 200.82 72.4203 185.7 75.3603C184.44 75.3605 183.602 76.1999 183.6 77.4594C183.6 78.7194 184.44 79.56 185.7 79.56C200.82 82.5 209.22 84.6 214.68 90.06C220.14 95.52 222.24 103.921 224.76 119.041C225.18 120.3 226.02 121.139 227.28 121.14C228.118 121.14 229.38 120.3 229.38 119.041C232.32 103.921 234.42 95.52 239.88 90.06C244.92 84.6 253.74 82.5 268.86 79.56C269.7 79.5599 270.54 78.7192 270.54 77.4594C270.54 76.2 269.7 75.3606 268.86 75.3603C253.74 72.4203 244.92 70.3203 239.88 64.8603C234.42 59.4003 232.32 50.9999 229.38 35.8799C229.38 35.0399 228.12 34.1997 227.28 34.1997Z" fill="black"/>
</g>
<defs>
<clipPath id="clip0_11_4">
<rect width="300" height="300" fill="white"/>
</clipPath>
</defs>
</svg>
