<svg width="300" height="300" viewBox="0 0 300 300" fill="none" xmlns="http://www.w3.org/2000/svg">
<g clip-path="url(#clip0_11_8)">
<path d="M300 240C300 273.137 273.137 300 240 300H60C26.8629 300 0 273.137 0 240V60C0 26.8629 26.8629 0 60 0H240C273.137 0 300 26.8629 300 60V240ZM149.58 49.3199C146.64 49.32 144.54 51.4201 144.12 53.94C137.4 90.8997 131.94 111.9 118.92 124.5C105.9 137.52 84.9 143.4 47.94 149.7C45.42 150.12 43.7403 152.64 43.7403 155.16C43.7405 158.1 45.4201 160.2 47.94 160.62C84.9 167.34 105.9 172.8 118.92 185.82C131.94 198.84 137.4 219.84 144.12 256.8C144.54 259.32 146.64 261 149.58 261C152.1 261 154.62 259.32 155.04 256.8C161.34 219.84 167.22 198.84 180.24 185.82C193.26 172.8 213.84 167.34 250.8 160.62C253.32 160.2 255.42 158.1 255.42 155.16C255.42 152.64 253.32 150.12 250.8 149.7C213.84 143.4 192.84 137.52 180.24 124.5C167.22 111.48 161.34 90.8998 155.04 53.94C154.62 51.42 152.1 49.3199 149.58 49.3199ZM227.28 34.1997V34.1997C225.162 34.2002 224.587 36.947 224.222 39.0337C221.921 52.1908 219.748 59.7923 214.68 64.8603C209.629 69.9117 202.061 72.0872 188.983 74.7126C186.804 75.1501 183.603 75.2365 183.6 77.4594V77.4594V77.4594C183.6 79.6834 186.804 79.7703 188.985 80.208C202.061 82.8333 209.629 85.0088 214.68 90.06C219.706 95.0858 221.885 102.603 224.165 115.559C224.572 117.871 224.932 121.139 227.28 121.14V121.14V121.14C229.445 121.14 229.585 117.966 230.01 115.844C232.644 102.713 234.818 95.1225 239.88 90.06C244.586 84.9617 252.588 82.793 265.937 80.1344C267.879 79.7477 270.54 79.4393 270.54 77.4594V77.4594V77.4594C270.54 75.4803 267.88 75.1726 265.938 74.7861C252.588 72.1276 244.586 69.9587 239.88 64.8603C234.773 59.7531 232.605 52.0733 229.941 38.728C229.563 36.8354 229.21 34.1997 227.28 34.1997V34.1997Z" fill="url(#paint0_linear_11_8)"/>
</g>
<defs>
<linearGradient id="paint0_linear_11_8" x1="150" y1="0" x2="150" y2="300" gradientUnits="userSpaceOnUse">
<stop stop-color="#4D00FF"/>
<stop offset="1" stop-color="#2E0099"/>
</linearGradient>
<clipPath id="clip0_11_8">
<rect width="300" height="300" fill="white"/>
</clipPath>
</defs>
</svg>
